<svg id="visual" viewBox="0 0 900 600" width="900" height="600" xmlns="http://www.w3.org/2000/svg" xmlns:xlink="http://www.w3.org/1999/xlink" version="1.1"><rect width="900" height="600" fill="#000b13"></rect><g><g transform="translate(181 457)"><path d="M0 -83L71.9 -41.5L71.9 41.5L0 83L-71.9 41.5L-71.9 -41.5Z" stroke="#297EA6" fill="none" stroke-width="2"></path></g><g transform="translate(485 207)"><path d="M0 -31L26.8 -15.5L26.8 15.5L0 31L-26.8 15.5L-26.8 -15.5Z" stroke="#297EA6" fill="none" stroke-width="2"></path></g><g transform="translate(64 578)"><path d="M0 -11L9.5 -5.5L9.5 5.5L0 11L-9.5 5.5L-9.5 -5.5Z" stroke="#297EA6" fill="none" stroke-width="2"></path></g><g transform="translate(308 264)"><path d="M0 -50L43.3 -25L43.3 25L0 50L-43.3 25L-43.3 -25Z" stroke="#297EA6" fill="none" stroke-width="2"></path></g><g transform="translate(849 93)"><path d="M0 -55L47.6 -27.5L47.6 27.5L0 55L-47.6 27.5L-47.6 -27.5Z" stroke="#297EA6" fill="none" stroke-width="2"></path></g><g transform="translate(478 588)"><path d="M0 -22L19.1 -11L19.1 11L0 22L-19.1 11L-19.1 -11Z" stroke="#297EA6" fill="none" stroke-width="2"></path></g><g transform="translate(303 16)"><path d="M0 -20L17.3 -10L17.3 10L0 20L-17.3 10L-17.3 -10Z" stroke="#297EA6" fill="none" stroke-width="2"></path></g><g transform="translate(725 299)"><path d="M0 -60L52 -30L52 30L0 60L-52 30L-52 -30Z" stroke="#297EA6" fill="none" stroke-width="2"></path></g><g transform="translate(527 21)"><path d="M0 -40L34.6 -20L34.6 20L0 40L-34.6 20L-34.6 -20Z" stroke="#297EA6" fill="none" stroke-width="2"></path></g><g transform="translate(504 373)"><path d="M0 -74L64.1 -37L64.1 37L0 74L-64.1 37L-64.1 -37Z" stroke="#297EA6" fill="none" stroke-width="2"></path></g><g transform="translate(49 90)"><path d="M0 -50L43.3 -25L43.3 25L0 50L-43.3 25L-43.3 -25Z" stroke="#297EA6" fill="none" stroke-width="2"></path></g><g transform="translate(143 241)"><path d="M0 -69L59.8 -34.5L59.8 34.5L0 69L-59.8 34.5L-59.8 -34.5Z" stroke="#297EA6" fill="none" stroke-width="2"></path></g><g transform="translate(721 522)"><path d="M0 -47L40.7 -23.5L40.7 23.5L0 47L-40.7 23.5L-40.7 -23.5Z" stroke="#297EA6" fill="none" stroke-width="2"></path></g><g transform="translate(871 393)"><path d="M0 -71L61.5 -35.5L61.5 35.5L0 71L-61.5 35.5L-61.5 -35.5Z" stroke="#297EA6" fill="none" stroke-width="2"></path></g><g transform="translate(695 5)"><path d="M0 -39L33.8 -19.5L33.8 19.5L0 39L-33.8 19.5L-33.8 -19.5Z" stroke="#297EA6" fill="none" stroke-width="2"></path></g><g transform="translate(364 466)"><path d="M0 -32L27.7 -16L27.7 16L0 32L-27.7 16L-27.7 -16Z" stroke="#297EA6" fill="none" stroke-width="2"></path></g><g transform="translate(23 357)"><path d="M0 -53L45.9 -26.5L45.9 26.5L0 53L-45.9 26.5L-45.9 -26.5Z" stroke="#297EA6" fill="none" stroke-width="2"></path></g><g transform="translate(893 561)"><path d="M0 -65L56.3 -32.5L56.3 32.5L0 65L-56.3 32.5L-56.3 -32.5Z" stroke="#297EA6" fill="none" stroke-width="2"></path></g></g></svg>