<svg id="visual" viewBox="0 0 900 600" width="900" height="600" xmlns="http://www.w3.org/2000/svg" xmlns:xlink="http://www.w3.org/1999/xlink" version="1.1"><rect width="900" height="600" fill="#090e11"></rect><g><g transform="translate(747 572)"><path d="M0 -71.4L61.9 -35.7L61.9 35.7L0 71.4L-61.9 35.7L-61.9 -35.7Z" fill="none" stroke="#86087e" stroke-width="2"></path></g><g transform="translate(560 130)"><path d="M0 -61L52.8 -30.5L52.8 30.5L0 61L-52.8 30.5L-52.8 -30.5Z" fill="none" stroke="#86087e" stroke-width="2"></path></g><g transform="translate(310 336)"><path d="M0 -44L38.1 -22L38.1 22L0 44L-38.1 22L-38.1 -22Z" stroke="#86087e" fill="none" stroke-width="2"></path></g><g transform="translate(252 33)"><path d="M0 -55L47.6 -27.5L47.6 27.5L0 55L-47.6 27.5L-47.6 -27.5Z" stroke="#86087e" fill="none" stroke-width="2"></path></g><g transform="translate(77 489)"><path d="M0 -50L43.3 -25L43.3 25L0 50L-43.3 25L-43.3 -25Z" stroke="#86087e" fill="none" stroke-width="2"></path></g><g transform="translate(503 309)"><path d="M0 -46L39.8 -23L39.8 23L0 46L-39.8 23L-39.8 -23Z" stroke="#86087e" fill="none" stroke-width="2"></path></g></g></svg>