<svg id="visual" viewBox="0 0 900 600" width="900" height="600" xmlns="http://www.w3.org/2000/svg" xmlns:xlink="http://www.w3.org/1999/xlink" version="1.1"><rect width="900" height="600" fill="#001321"></rect><g><g transform="translate(239 452)"><path d="M0 -114.9L99.5 -57.5L99.5 57.5L0 114.9L-99.5 57.5L-99.5 -57.5Z" fill="none" stroke="#860808" stroke-width="2"></path></g><g transform="translate(857 48)"><path d="M0 -112L97 -56L97 56L0 112L-97 56L-97 -56Z" fill="none" stroke="#860808" stroke-width="2"></path></g><g transform="translate(585 78)"><path d="M0 -100L86.6 -50L86.6 50L0 100L-86.6 50L-86.6 -50Z" fill="none" stroke="#860808" stroke-width="2"></path></g><g transform="translate(57 228)"><path d="M0 -108L93.5 -54L93.5 54L0 108L-93.5 54L-93.5 -54Z" stroke="#860808" fill="none" stroke-width="2"></path></g><g transform="translate(591 520)"><path d="M0 -100L86.6 -50L86.6 50L0 100L-86.6 50L-86.6 -50Z" stroke="#860808" fill="none" stroke-width="2"></path></g><g transform="translate(899 391)"><path d="M0 -100L86.6 -50L86.6 50L0 100L-86.6 50L-86.6 -50Z" stroke="#860808" fill="none" stroke-width="2"></path></g><g transform="translate(339 100)"><path d="M0 -110L95.3 -55L95.3 55L0 110L-95.3 55L-95.3 -55Z" stroke="#860808" fill="none" stroke-width="2"></path></g><g transform="translate(432 315)"><path d="M0 -106L91.8 -53L91.8 53L0 106L-91.8 53L-91.8 -53Z" stroke="#860808" fill="none" stroke-width="2"></path></g></g></svg>